# xmcd
#
# Track frame offsets: 
#        150
#        9155
#        28703
#        46423
#        58096
#        78607
#        95710
#
# Disc length: 1436 seconds
#
# Revision: 0
# Processed by: cddbd v1.5.1PL0 Copyright (c) Steve Scherf et al.
# Submitted via: ExactAudioCopy v0.95a5
#
DISCID=52059a07
DTITLE=Game Insane - Trunk Tight
DYEAR=2003
DGENRE=West-Coast Rap
TTITLE0=Trunk Tight
TTITLE1=Conflict
TTITLE2=Fuck The Sane
TTITLE3=Devil Smilin'
TTITLE4=Dysfunctionz
TTITLE5=Savagery
TTITLE6=Trunk Tight Outro
EXTD=
EXTT0=
EXTT1=
EXTT2=
EXTT3=
EXTT4=
EXTT5=
EXTT6=
PLAYORDER=
